HIERARCHY
ROOT hip
{
  OFFSET 0 0 0
  CHANNELS 6 Xposition Yposition Zposition Zrotation Yrotation Xrotation
  JOINT abdomen
  {
    OFFSET 0 20.6881 -0.73152
    CHANNELS 3 Zrotation Xrotation Yrotation
    JOINT chest
    {
      OFFSET 0 11.7043 -0.48768
      CHANNELS 3 Zrotation Xrotation Yrotation
      JOINT neck
      {
        OFFSET 0 22.1894 -2.19456
        CHANNELS 3 Zrotation Xrotation Yrotation
        JOINT head
        {
          OFFSET -0.24384 7.07133 1.2192
          CHANNELS 3 Zrotation Xrotation Yrotation
          JOINT leftEye
          {
            OFFSET 4.14528 8.04674 8.04672
            CHANNELS 3 Zrotation Xrotation Yrotation
            End Site
            {
              OFFSET 1 0 0
            }
          }
          JOINT rightEye
          {
            OFFSET -3.6576 8.04674 8.04672
            CHANNELS 3 Zrotation Xrotation Yrotation
            End Site
            {
              OFFSET 1 0 0
            }
          }
        }
      }
      JOINT rCollar
      {
        OFFSET -2.68224 19.2634 -4.8768
        CHANNELS 3 Zrotation Xrotation Yrotation
        JOINT rShldr
        {
          OFFSET -8.77824 -1.95073 1.46304
          CHANNELS 3 Zrotation Xrotation Yrotation
          JOINT rForeArm
          {
            OFFSET -28.1742 -1.7115 0.48768
            CHANNELS 3 Zrotation Xrotation Yrotation
            JOINT rHand
            {
              OFFSET -22.5879 0.773209 7.07136
              CHANNELS 3 Zrotation Xrotation Yrotation
              JOINT rThumb1
              {
                OFFSET -1.2192 -0.487915 3.41376
                CHANNELS 3 Zrotation Xrotation Yrotation
                JOINT rThumb2
                {
                  OFFSET -3.37035 -0.52449 3.41376
                  CHANNELS 3 Zrotation Xrotation Yrotation
                  End Site
                  {
                    OFFSET -1.78271 -1.18214 1.43049
                  }
                }
              }
              JOINT rIndex1
              {
                OFFSET -7.75947 0.938293 5.60832
                CHANNELS 3 Zrotation Xrotation Yrotation
                JOINT rIndex2
                {
                  OFFSET -2.54057 -0.884171 1.56538
                  CHANNELS 3 Zrotation Xrotation Yrotation
                  End Site
                  {
                    OFFSET -1.62519 -0.234802 1.16502
                  }
                }
              }
              JOINT rMid1
              {
                OFFSET -8.24714 1.18213 3.41376
                CHANNELS 3 Zrotation Xrotation Yrotation
                JOINT rMid2
                {
                  OFFSET -3.10165 -0.590103 1.0647
                  CHANNELS 3 Zrotation Xrotation Yrotation
                  End Site
                  {
                    OFFSET -2.48547 -0.328903 0.83742
                  }
                }
              }
              JOINT rRing1
              {
                OFFSET -8.82822 0.546677 1.51678
                CHANNELS 3 Zrotation Xrotation Yrotation
                JOINT rRing2
                {
                  OFFSET -2.60934 -0.819778 -0.0198488
                  CHANNELS 3 Zrotation Xrotation Yrotation
                  End Site
                  {
                    OFFSET -2.33842 -0.294052 0.168128
                  }
                }
              }
              JOINT rPinky1
              {
                OFFSET -8.27202 -0.0477905 -0.4584
                CHANNELS 3 Zrotation Xrotation Yrotation
                JOINT rPinky2
                {
                  OFFSET -1.82734 -0.647385 -0.700984
                  CHANNELS 3 Zrotation Xrotation Yrotation
                  End Site
                  {
                    OFFSET -1.69225 -0.51767 -0.607171
                  }
                }
              }
            }
          }
        }
      }
      JOINT lCollar
      {
        OFFSET 2.68224 19.2634 -4.8768
        CHANNELS 3 Zrotation Xrotation Yrotation
        JOINT lShldr
        {
          OFFSET 8.77824 -1.95073 1.46304
          CHANNELS 3 Zrotation Xrotation Yrotation
          JOINT lForeArm
          {
            OFFSET 28.1742 -1.7115 0.48768
            CHANNELS 3 Zrotation Xrotation Yrotation
            JOINT lHand
            {
              OFFSET 22.5879 0.773209 7.07136
              CHANNELS 3 Zrotation Xrotation Yrotation
              JOINT lThumb1
              {
                OFFSET 1.2192 -0.487915 3.41376
                CHANNELS 3 Zrotation Xrotation Yrotation
                JOINT lThumb2
                {
                  OFFSET 3.37035 -0.52449 3.41376
                  CHANNELS 3 Zrotation Xrotation Yrotation
                  End Site
                  {
                    OFFSET 1.78271 -1.18214 1.43049
                  }
                }
              }
              JOINT lIndex1
              {
                OFFSET 7.75947 0.938293 5.60832
                CHANNELS 3 Zrotation Xrotation Yrotation
                JOINT lIndex2
                {
                  OFFSET 2.54057 -0.884171 1.56538
                  CHANNELS 3 Zrotation Xrotation Yrotation
                  End Site
                  {
                    OFFSET 1.62519 -0.234802 1.16502
                  }
                }
              }
              JOINT lMid1
              {
                OFFSET 8.24714 1.18213 3.41376
                CHANNELS 3 Zrotation Xrotation Yrotation
                JOINT lMid2
                {
                  OFFSET 3.10165 -0.590103 1.0647
                  CHANNELS 3 Zrotation Xrotation Yrotation
                  End Site
                  {
                    OFFSET 2.48547 -0.328903 0.83742
                  }
                }
              }
              JOINT lRing1
              {
                OFFSET 8.82822 0.546677 1.51678
                CHANNELS 3 Zrotation Xrotation Yrotation
                JOINT lRing2
                {
                  OFFSET 2.60934 -0.819778 -0.0198488
                  CHANNELS 3 Zrotation Xrotation Yrotation
                  End Site
                  {
                    OFFSET 2.33842 -0.294052 0.168128
                  }
                }
              }
              JOINT lPinky1
              {
                OFFSET 8.27202 -0.0477905 -0.4584
                CHANNELS 3 Zrotation Xrotation Yrotation
                JOINT lPinky2
                {
                  OFFSET 1.82734 -0.647385 -0.700984
                  CHANNELS 3 Zrotation Xrotation Yrotation
                  End Site
                  {
                    OFFSET 1.69225 -0.51767 -0.607171
                  }
                }
              }
            }
          }
        }
      }
    }
  }
  JOINT rButtock
  {
    OFFSET -8.77824 4.35084 1.2192
    CHANNELS 3 Zrotation Xrotation Yrotation
    JOINT rThigh
    {
      OFFSET 0 -1.70687 -2.19456
      CHANNELS 3 Zrotation Xrotation Yrotation
      JOINT rShin
      {
        OFFSET 0 -36.8199 0.73152
        CHANNELS 3 Zrotation Xrotation Yrotation
        JOINT rFoot
        {
          OFFSET 0.73152 -45.1104 -5.12064
          CHANNELS 3 Zrotation Xrotation Yrotation
          End Site
          {
            OFFSET -1.1221 -3.69964 12.103
          }
        }
      }
    }
  }
  JOINT lButtock
  {
    OFFSET 8.77824 4.35084 1.2192
    CHANNELS 3 Zrotation Xrotation Yrotation
    JOINT lThigh
    {
      OFFSET 0 -1.70687 -2.19456
      CHANNELS 3 Zrotation Xrotation Yrotation
      JOINT lShin
      {
        OFFSET 0 -36.8199 0.73152
        CHANNELS 3 Zrotation Xrotation Yrotation
        JOINT lFoot
        {
          OFFSET -0.73152 -45.1104 -5.12064
          CHANNELS 3 Zrotation Xrotation Yrotation
          End Site
          {
            OFFSET 1.1221 -3.69964 12.103
          }
        }
      }
    }
  }
}
MOTION
Frames:	7
Frame Time:	0.00833333
11.1607 82.6252 -3.62202 48.6122 -102.079 -52.1921 12.6234 10.138 6.13547 -6.18834 -3.16501 1.89795 4.71156 17.4269 -0.183301 -6.6992 -35.563 -2.41946 -0.0 0.0 0.0 -0.0 0.0 0.0 -1.30477e-13 -9.69441e-12 -2.31684e-13 44.3222 38.6195 47.4651 -21.399 -14.8866 42.165 -0.242363 13.8789 1.99005 -2.6435e-10 1.2085e-09 1.55572e-09 -4.42567e-10 2.08463e-09 2.69365e-09 -2.64345e-10 1.2085e-09 1.55571e-09 7.73091 5.47488 0.417314 -2.64349e-10 1.2085e-09 1.55572e-09 2.90554 0.965183 0.102902 -2.64345e-10 1.2085e-09 1.55571e-09 10.2786 0.731801 0.0259123 -2.64356e-10 1.2085e-09 1.55572e-09 2.22167 -0.733487 -0.20892 -1.30464e-13 -9.69442e-12 -2.31854e-13 -29.0165 -44.9536 63.2334 5.34096 -1.75845 -9.30992 11.8424 65.7159 -18.2113 -7.41465e-10 -1.9741e-10 -6.09774e-10 -1.29585e-09 -4.3442e-10 -1.00477e-09 -7.41471e-10 -1.97409e-10 -6.09758e-10 -7.73091 5.47488 -0.417314 -7.41466e-10 -1.97412e-10 -6.09775e-10 -2.90554 0.965183 -0.102902 -7.4147e-10 -1.97412e-10 -6.09775e-10 -10.2786 0.731801 -0.0259123 -7.41462e-10 -1.9741e-10 -6.09783e-10 -2.22167 -0.733487 0.20892 -2.03217e-16 0.0 -3.88251e-19 11.0077 22.3655 2.95263 0.0900023 7.95304 0.739086 -0.850141 -12.0286 -1.20334 2.03217e-16 0.0 3.88251e-19 11.5526 -35.8959 2.52682 0.20922 33.6127 -0.789551 0.620125 -2.51698 0.417629
8.63456 82.6937 -3.3982 48.182 -101.402 -51.4855 11.1749 9.53222 6.06783 -6.14788 -3.3606 1.83195 5.2307 17.0611 -0.215336 -6.02599 -34.6176 -2.21953 -0.0 0.0 0.0 -0.0 0.0 0.0 -4.60231e-14 -7.45952e-12 -2.46667e-13 46.8415 39.5382 44.9957 -21.733 -15.3674 43.0481 -0.243876 13.9206 1.99627 -2.00616e-09 3.14116e-09 1.99976e-09 -3.44902e-09 5.43154e-09 3.48379e-09 -2.00616e-09 3.14116e-09 1.99975e-09 7.73091 5.47488 0.417314 -2.00616e-09 3.14116e-09 1.99976e-09 2.90554 0.965183 0.102902 -2.00616e-09 3.14115e-09 1.99976e-09 10.2786 0.731801 0.0259123 -2.00617e-09 3.14116e-09 1.99976e-09 2.22167 -0.733487 -0.20892 -4.60479e-14 -7.45953e-12 -2.46891e-13 -25.2493 -45.7824 66.2323 5.2143 -1.70516 -9.08505 13.9597 68.1191 -20.5157 -1.71747e-09 -1.30299e-10 -3.53013e-10 -2.95374e-09 -2.54579e-10 -5.09403e-10 -1.71748e-09 -1.30299e-10 -3.52998e-10 -7.73091 5.47488 -0.417314 -1.71747e-09 -1.303e-10 -3.53013e-10 -2.90554 0.965183 -0.102902 -1.71748e-09 -1.303e-10 -3.5301e-10 -10.2786 0.731801 -0.0259123 -1.71747e-09 -1.30298e-10 -3.53014e-10 -2.22167 -0.733487 0.20892 -2.03217e-16 0.0 -3.88251e-19 10.0941 22.531 3.43843 0.0889409 10.0716 0.801387 -0.898053 -10.9198 -1.3922 2.03217e-16 0.0 3.88251e-19 10.1377 -36.1636 2.37782 0.243414 35.7678 -0.80687 0.747501 -0.375472 1.70166
6.16877 82.4411 -3.09229 46.6907 -100.531 -49.7775 9.60347 9.05653 6.00447 -6.06952 -3.52574 1.76288 5.50237 16.7478 -0.262954 -5.1664 -33.7167 -2.02227 -0.0 0.0 0.0 -0.0 0.0 0.0 2.3853e-14 -5.25999e-12 -2.28453e-13 49.4281 40.526 42.2713 -21.937 -15.663 43.6195 -0.241276 13.8521 1.98602 -2.68915e-09 3.66641e-09 1.8016e-09 -4.6311e-09 6.34323e-09 3.15074e-09 -2.68914e-09 3.66641e-09 1.80159e-09 7.73091 5.47488 0.417314 -2.68915e-09 3.6664e-09 1.80161e-09 2.90554 0.965183 0.102902 -2.68915e-09 3.6664e-09 1.8016e-09 10.2786 0.731801 0.0259123 -2.68916e-09 3.66641e-09 1.80161e-09 2.22167 -0.733487 -0.20892 2.38073e-14 -5.26e-12 -2.28702e-13 -22.2629 -46.7777 68.4896 5.10229 -1.6584 -8.88649 16.5598 70.4373 -23.2971 -1.93461e-09 -1.72837e-10 -3.46868e-10 -3.3307e-09 -2.84033e-10 -4.87624e-10 -1.93461e-09 -1.72837e-10 -3.46855e-10 -7.73091 5.47488 -0.417314 -1.93461e-09 -1.72838e-10 -3.46868e-10 -2.90554 0.965183 -0.102902 -1.93461e-09 -1.72837e-10 -3.46863e-10 -10.2786 0.731801 -0.0259123 -1.93461e-09 -1.72836e-10 -3.46865e-10 -2.22167 -0.733487 0.20892 -2.03217e-16 0.0 -3.88251e-19 9.12589 21.6634 3.84521 0.0592253 13.4342 0.839349 -0.833994 -8.51002 -1.30053 2.03217e-16 0.0 3.88251e-19 8.4976 -36.1545 2.00945 0.280082 37.6116 -0.804755 0.781461 0.779298 2.51763
3.78308 82.2233 -2.71489 43.8363 -99.4686 -46.8327 7.8578 8.73929 5.944 -5.93983 -3.65506 1.69072 5.38073 16.4817 -0.350819 -3.92702 -32.8375 -1.83127 -0.0 0.0 0.0 -0.0 0.0 0.0 8.17763e-14 -2.8711e-12 -1.54748e-13 52.1885 41.6253 39.1328 -22.0285 -15.7866 43.9191 -0.233202 13.6298 1.95284 -1.65631e-09 1.8044e-09 4.1796e-10 -2.85814e-09 3.12482e-09 7.4744e-10 -1.6563e-09 1.8044e-09 4.1795e-10 7.73091 5.47488 0.417314 -1.65631e-09 1.8044e-09 4.17962e-10 2.90554 0.965183 0.102902 -1.6563e-09 1.8044e-09 4.17959e-10 10.2786 0.731801 0.0259123 -1.65631e-09 1.80441e-09 4.17965e-10 2.22167 -0.733487 -0.20892 8.17362e-14 -2.87111e-12 -1.54974e-13 -18.9895 -48.4339 70.8616 4.9887 -1.61171 -8.68511 21.4206 73.5388 -28.4016 -8.89016e-10 -4.27996e-10 -8.06305e-10 -1.58108e-09 -7.07329e-10 -1.33821e-09 -8.89023e-10 -4.27996e-10 -8.06295e-10 -7.73091 5.47488 -0.417314 -8.89015e-10 -4.27996e-10 -8.06308e-10 -2.90554 0.965183 -0.102902 -8.89021e-10 -4.27995e-10 -8.063e-10 -10.2786 0.731801 -0.0259123 -8.89014e-10 -4.27994e-10 -8.06302e-10 -2.22167 -0.733487 0.20892 -2.03217e-16 0.0 -3.88251e-19 8.12482 19.4286 4.14278 -0.00279793 18.6403 0.841601 -0.681973 -4.11522 -0.826002 2.03217e-16 0.0 3.88251e-19 6.48245 -35.8313 1.21038 0.319894 39.1518 -0.77725 0.796675 0.531853 2.69921
1.5728 81.8764 -2.30865 40.3584 -98.432 -43.2987 5.90839 8.49334 5.87931 -5.77354 -3.77074 1.61117 5.00345 16.2249 -0.468621 -2.38523 -31.905 -1.63481 -0.0 0.0 0.0 -0.0 0.0 0.0 1.38753e-13 -8.04417e-14 -4.03378e-14 55.3306 42.7957 35.4346 -22.0403 -15.7905 44.0021 -0.221861 13.3034 1.9043 4.66622e-10 -1.62488e-09 -1.79457e-09 7.91513e-10 -2.80476e-09 -3.102e-09 4.66627e-10 -1.62488e-09 -1.79458e-09 7.73091 5.47488 0.417314 4.66621e-10 -1.62488e-09 -1.79457e-09 2.90554 0.965183 0.102902 4.66627e-10 -1.62488e-09 -1.79457e-09 10.2786 0.731801 0.0259123 4.66618e-10 -1.62487e-09 -1.79457e-09 2.22167 -0.733487 -0.20892 1.38731e-13 -8.04554e-14 -4.05148e-14 -14.8568 -50.6794 73.924 4.8665 -1.56191 -8.46873 31.4271 77.2755 -38.7164 9.96279e-10 -8.35242e-10 -1.56619e-09 1.58264e-09 -1.40442e-09 -2.75319e-09 9.96273e-10 -8.35242e-10 -1.56618e-09 -7.73091 5.47488 -0.417314 9.96281e-10 -8.35244e-10 -1.5662e-09 -2.90554 0.965183 -0.102902 9.96271e-10 -8.35241e-10 -1.56619e-09 -10.2786 0.731801 -0.0259123 9.96283e-10 -8.35241e-10 -1.56619e-09 -2.22167 -0.733487 0.20892 -2.03217e-16 0.0 -3.88251e-19 7.07342 16.1323 4.33166 -0.0827946 25.2843 0.826955 -0.584144 1.76079 -0.0596404 2.03217e-16 0.0 3.88251e-19 4.13346 -35.2887 0.103989 0.360564 40.533 -0.728764 0.804548 -0.587166 2.46477
-0.536583 81.9159 -1.90065 36.877 -97.5891 -39.7896 3.89429 8.32041 5.81752 -5.58953 -3.86821 1.52746 4.59506 16.0178 -0.568503 -0.916702 -31.0269 -1.43202 -0.0 0.0 0.0 -0.0 0.0 0.0 1.80623e-13 2.4471e-12 7.57047e-14 58.5729 43.8895 31.5426 -21.9395 -15.6403 43.7249 -0.209565 12.9341 1.84958 2.6707e-09 -5.03178e-09 -3.88102e-09 4.58261e-09 -8.69625e-09 -6.73479e-09 2.6707e-09 -5.03178e-09 -3.88103e-09 7.73091 5.47488 0.417314 2.6707e-09 -5.03178e-09 -3.88103e-09 2.90554 0.965183 0.102902 2.67071e-09 -5.03177e-09 -3.88103e-09 10.2786 0.731801 0.0259123 2.6707e-09 -5.03177e-09 -3.88102e-09 2.22167 -0.733487 -0.20892 1.80619e-13 2.44709e-12 7.55786e-14 -12.74 -52.7711 75.3994 4.77788 -1.52609 -8.31201 42.8271 79.5592 -50.338 2.90488e-09 -1.20829e-09 -2.26669e-09 4.79209e-09 -2.0501e-09 -4.06631e-09 2.90487e-09 -1.20829e-09 -2.26669e-09 -7.73091 5.47488 -0.417314 2.90488e-09 -1.20829e-09 -2.26671e-09 -2.90554 0.965183 -0.102902 2.90487e-09 -1.20829e-09 -2.26669e-09 -10.2786 0.731801 -0.0259123 2.90489e-09 -1.20829e-09 -2.2667e-09 -2.22167 -0.733487 0.20892 -2.03217e-16 0.0 -3.88251e-19 5.98384 12.3025 4.48747 -0.17222 32.3218 0.819895 -0.635766 7.95869 0.825124 2.03217e-16 0.0 3.88251e-19 1.80242 -34.5292 -0.900383 0.394326 41.629 -0.663046 0.782543 -2.03767 2.02412
-2.50184 81.9246 -1.45063 32.7367 -96.8073 -35.654 1.95462 8.22224 5.76576 -5.40666 -3.94294 1.44281 4.38108 15.901 -0.602868 0.104607 -30.3107 -1.22097 -0.0 0.0 0.0 -0.0 0.0 0.0 1.93223e-13 4.04664e-12 1.54307e-13 61.5766 44.8136 27.8815 -21.6849 -15.2913 42.9463 -0.198221 12.5832 1.79774 3.94699e-09 -6.82664e-09 -4.88644e-09 6.77992e-09 -1.18004e-08 -8.48812e-09 3.94699e-09 -6.82664e-09 -4.88645e-09 7.73091 5.47488 0.417314 3.94699e-09 -6.82663e-09 -4.88644e-09 2.90554 0.965183 0.102902 3.947e-09 -6.82663e-09 -4.88644e-09 10.2786 0.731801 0.0259123 3.94699e-09 -6.82663e-09 -4.88644e-09 2.22167 -0.733487 -0.20892 1.93227e-13 4.04663e-12 1.54207e-13 -16.1924 -54.0514 72.16 4.76537 -1.52135 -8.28959 41.02 79.3768 -48.5291 4.02039e-09 -1.36085e-09 -2.548e-09 6.67892e-09 -2.3192e-09 -4.61128e-09 4.02038e-09 -1.36085e-09 -2.548e-09 -7.73091 5.47488 -0.417314 4.02039e-09 -1.36085e-09 -2.54802e-09 -2.90554 0.965183 -0.102902 4.02038e-09 -1.36085e-09 -2.54801e-09 -10.2786 0.731801 -0.0259123 4.0204e-09 -1.36085e-09 -2.54801e-09 -2.22167 -0.733487 0.20892 -2.03217e-16 0.0 -3.88251e-19 4.8755 8.46718 4.67598 -0.274938 38.7081 0.843829 -0.802349 13.3175 1.6618 2.03217e-16 0.0 3.88251e-19 -0.184446 -33.5674 -1.40851 0.415215 42.3136 -0.584955 0.728469 -3.27851 1.58507
